<?xml version="1.0" encoding="utf-8"?>
<!-- Generator: Adobe Illustrator 19.2.1, SVG Export Plug-In . SVG Version: 6.00 Build 0)  -->
<svg version="1.1" id="Capa_1" xmlns="http://www.w3.org/2000/svg" xmlns:xlink="http://www.w3.org/1999/xlink" x="0px" y="0px"
	 viewBox="0 0 483.5 484.7" style="enable-background:new 0 0 483.5 484.7;" xml:space="preserve">
<g>
	<g>
		<g>
			<g>
				<g>
					<path d="M85.1,1.2L44.6,86.4h-4.1L0,1.2h17.8L42.6,55L67.3,1.2H85.1z"/>
				</g>
			</g>
			<g>
				<g>
					<path d="M204.8,70.6v14.6h-58.1v-84h57.6v14.7H163v22.4h36.5v14.7H163v17.7H204.8z"/>
				</g>
			</g>
			<g>
				<g>
					<path d="M307.6,61.1h-13.4v24.1h-16.3v-84h32.2c18.8,0,31.8,12.4,31.8,29.9c0,12.8-6.8,22.7-17.6,27.3l20.4,26.9h-19
						L307.6,61.1z M294.2,46.3h14.6c9.6,0,16.3-6.2,16.3-15.3c0-8.8-6.6-15.1-16.3-15.1h-14.6V46.3z"/>
				</g>
			</g>
			<g>
				<g>
					<path d="M394.9,43.3C394.9,19,413.5,0,439.2,0c25.7,0,44.2,19,44.2,43.3c0,24.6-18.8,43.1-44.2,43.1
						C413.8,86.4,394.9,67.9,394.9,43.3z M467.1,43.3c0-16.1-11.6-28.3-27.8-28.3c-16.3,0-27.8,12.2-27.8,28.3
						c0,16.3,11.7,28.2,27.8,28.2C455.4,71.5,467.1,59.5,467.1,43.3z"/>
				</g>
			</g>
			<g>
				<g>
					<path d="M78.6,134v85H74l-54.6-53.8V218H3.1v-84.9h4.7L62.4,187V134H78.6z"/>
				</g>
			</g>
			<g>
				<g>
					<path d="M165.5,134h16.3v84h-16.3V134z"/>
				</g>
			</g>
			<g>
				<g>
					<path d="M271.4,176c0-24.7,18.9-43.1,44.7-43.1c11.5,0,21,3.6,28.2,9.3l-7.5,13.1c-5.7-5.1-12.4-7.5-20.2-7.5
						c-16.9,0-28.7,12.1-28.7,28.2c0,16.3,11.8,28.3,28.7,28.3c8,0,14.8-2.6,20.2-7.5l7.5,13.1c-7.2,5.7-16.7,9.3-28.2,9.3
						C290.2,219.2,271.4,200.8,271.4,176z"/>
				</g>
			</g>
			<g>
				<g>
					<path d="M459.1,202.8h-36.3l-6.8,15.2h-17.6l40.9-85.2h3.3l40.9,85.2h-17.6L459.1,202.8z M453,189.6l-12.1-26.9l-12.2,26.9H453
						z"/>
				</g>
			</g>
		</g>
	</g>
	<g>
		<g>
			<g>
				<g>
					<path d="M79,350.8L75.8,274l-34.3,77.1h-1.3L5.9,274l-3.2,76.9H0.2l3.5-84h1.4l35.7,80.1l35.6-80.1h1.4l3.5,84H79z"/>
				</g>
			</g>
			<g>
				<g>
					<path d="M154.1,269.1v41.2h40.4v2.3h-40.4v36H203v2.3h-51.3v-84H203v2.3H154.1z"/>
				</g>
			</g>
			<g>
				<g>
					<path d="M339.4,269.1h-29.9v81.8h-2.4v-81.8h-29.9v-2.3h62.2V269.1z"/>
				</g>
			</g>
			<g>
				<g>
					<path d="M419.7,269.1v41.2h40.4v2.3h-40.4v36h48.9v2.3h-51.3v-84h51.3v2.3H419.7z"/>
				</g>
			</g>
			<g>
				<g>
					<path d="M74.3,481.4v2.3H23.1v-84h2.4v81.8H74.3z"/>
				</g>
			</g>
			<g>
				<g>
					<path d="M172.4,399.6h2.4v84h-2.4V399.6z"/>
				</g>
			</g>
			<g>
				<g>
					<path d="M273.3,441.6c0-24.6,18.4-43.1,42.9-43.1c9.6,0,19.4,2.7,25.8,7.4l-1.3,2.2c-6.6-4.8-15.8-7.2-24.6-7.2
						c-22.9,0-40.3,17.6-40.3,40.8c0,23.2,17.3,40.8,40.3,40.8c8.8,0,18.5-2.6,24.6-7.2l1.3,2.2c-6.5,4.7-16.3,7.4-25.8,7.4
						C291.7,484.7,273.3,466.2,273.3,441.6z"/>
				</g>
			</g>
			<g>
				<g>
					<path d="M396.3,441.7c0-24,17.9-43.1,42.9-43.1s42.9,19.1,42.9,43.1c0,24.6-17.9,43-42.9,43S396.3,466.3,396.3,441.7z
						 M479.6,441.7c0-22.6-17.8-40.8-40.4-40.8c-22.6,0-40.4,18.2-40.4,40.8c0,23.8,17.8,40.6,40.4,40.6
						C461.8,482.3,479.6,465.5,479.6,441.7z"/>
				</g>
			</g>
		</g>
	</g>
</g>
</svg>
